<svg width="27" height="27" viewBox="0 0 27 27" fill="none" xmlns="http://www.w3.org/2000/svg">
<circle cx="13.5" cy="13.5" r="13.5" fill="white"/>
<path d="M13.5 0C6.04413 0 0 6.04413 0 13.5C0 20.9559 6.04413 27 13.5 27C20.9559 27 27 20.9559 27 13.5C27 6.04413 20.9559 0 13.5 0ZM18.6503 6.87499L16.7831 6.87582C15.3189 6.87582 15.0358 7.5716 15.0358 8.59249V10.8436H18.5274L18.5257 14.3695H15.036V23.4178H11.3941V14.3695H8.3497V10.8436H11.3941V8.24336C11.3941 5.22571 13.2379 3.58223 15.9296 3.58223L18.6506 3.58637V6.87499H18.6503Z" fill="#FF7E00"/>
</svg>
