<svg width="28" height="27" viewBox="0 0 28 27" fill="none" xmlns="http://www.w3.org/2000/svg">
<circle cx="14.5" cy="13.5" r="13.5" fill="white"/>
<path d="M16.6797 13.5C16.6797 14.9271 15.48 16.084 14 16.084C12.52 16.084 11.3203 14.9271 11.3203 13.5C11.3203 12.0729 12.52 10.916 14 10.916C15.48 10.916 16.6797 12.0729 16.6797 13.5Z" fill="#FF7E00"/>
<path d="M20.2668 8.92818C20.138 8.59159 19.9325 8.28693 19.6655 8.03685C19.4062 7.77936 19.0904 7.58119 18.7411 7.45698C18.4579 7.35089 18.0323 7.22462 17.2486 7.19022C16.4007 7.15293 16.1465 7.1449 14 7.1449C11.8533 7.1449 11.5991 7.15273 10.7514 7.19001C9.96765 7.22462 9.5419 7.35089 9.25885 7.45698C8.90958 7.58119 8.59363 7.77936 8.3345 8.03685C8.06747 8.28693 7.86197 8.59139 7.73294 8.92818C7.62292 9.20133 7.49197 9.61188 7.4563 10.3677C7.41763 11.1851 7.4093 11.4302 7.4093 13.5002C7.4093 15.57 7.41763 15.8152 7.4563 16.6328C7.49197 17.3886 7.62292 17.7989 7.73294 18.072C7.86197 18.4088 8.06726 18.7133 8.33429 18.9634C8.59363 19.2209 8.90936 19.419 9.25864 19.5432C9.5419 19.6495 9.96765 19.7758 10.7514 19.8102C11.5991 19.8475 11.8531 19.8553 13.9998 19.8553C16.1467 19.8553 16.4009 19.8475 17.2484 19.8102C18.0321 19.7758 18.4579 19.6495 18.7411 19.5432C19.4423 19.2825 19.9964 18.7481 20.2668 18.072C20.3769 17.7989 20.5078 17.3886 20.5437 16.6328C20.5824 15.8152 20.5905 15.57 20.5905 13.5002C20.5905 11.4302 20.5824 11.1851 20.5437 10.3677C20.508 9.61188 20.3771 9.20133 20.2668 8.92818ZM14 17.4806C11.72 17.4806 9.87173 15.6986 9.87173 13.5C9.87173 11.3014 11.72 9.51939 14 9.51939C16.2798 9.51939 18.1281 11.3014 18.1281 13.5C18.1281 15.6986 16.2798 17.4806 14 17.4806ZM18.2913 10.2923C17.7585 10.2923 17.3265 9.87576 17.3265 9.36201C17.3265 8.84826 17.7585 8.43174 18.2913 8.43174C18.824 8.43174 19.256 8.84826 19.256 9.36201C19.2558 9.87576 18.824 10.2923 18.2913 10.2923Z" fill="#FF7E00"/>
<path d="M14 0C6.2692 0 0 6.0453 0 13.5C0 20.9547 6.2692 27 14 27C21.7308 27 28 20.9547 28 13.5C28 6.0453 21.7308 0 14 0ZM21.9906 16.696C21.9517 17.5212 21.8156 18.0846 21.6169 18.5777C21.1993 19.619 20.3457 20.4422 19.2658 20.8449C18.7546 21.0365 18.1701 21.1675 17.3146 21.2052C16.4573 21.2429 16.1834 21.252 14.0002 21.252C11.8168 21.252 11.5431 21.2429 10.6856 21.2052C9.83008 21.1675 9.24561 21.0365 8.73441 20.8449C8.19778 20.6502 7.71201 20.3452 7.31039 19.9507C6.90152 19.5636 6.58514 19.095 6.38327 18.5777C6.1846 18.0848 6.04852 17.5212 6.00964 16.6962C5.97012 15.8693 5.96094 15.6053 5.96094 13.5C5.96094 11.3947 5.97012 11.1307 6.00943 10.304C6.04831 9.4788 6.18417 8.91541 6.38284 8.42226C6.58472 7.90501 6.90131 7.43637 7.31039 7.04931C7.71179 6.65483 8.19778 6.34975 8.73419 6.15509C9.24561 5.96352 9.82986 5.8325 10.6856 5.79481C11.5429 5.75711 11.8168 5.74805 14 5.74805C16.1832 5.74805 16.4571 5.75711 17.3144 5.79501C18.1701 5.8325 18.7544 5.96352 19.2658 6.15488C19.8022 6.34955 20.2882 6.65483 20.6898 7.04931C21.0987 7.43658 21.4153 7.90501 21.6169 8.42226C21.8158 8.91541 21.9517 9.4788 21.9908 10.304C22.0299 11.1307 22.0391 11.3947 22.0391 13.5C22.0391 15.6053 22.0299 15.8693 21.9906 16.696Z" fill="#FF7E00"/>
</svg>
