<svg width="28" height="27" viewBox="0 0 28 27" fill="none" xmlns="http://www.w3.org/2000/svg">
<circle cx="14.5" cy="13.5" r="13.5" fill="white"/>
<path d="M14 0C6.2692 0 0 6.0453 0 13.5C0 20.9547 6.2692 27 14 27C21.7308 27 28 20.9547 28 13.5C28 6.0453 21.7308 0 14 0ZM20.3922 10.5259C20.3984 10.6587 20.4014 10.7922 20.4014 10.9263C20.4014 15.0209 17.1693 19.7424 11.2586 19.7426H11.2588H11.2586C9.44385 19.7426 7.75516 19.2297 6.33307 18.3507C6.5845 18.3794 6.84042 18.3936 7.09955 18.3936C8.60516 18.3936 9.99072 17.8984 11.0907 17.0672C9.68396 17.0421 8.49792 16.1462 8.08862 14.915C8.28452 14.9512 8.48596 14.971 8.69254 14.971C8.98584 14.971 9.26996 14.9329 9.53998 14.8618C8.06961 14.578 6.96198 13.3249 6.96198 11.8244C6.96198 11.8104 6.96198 11.7979 6.9624 11.7849C7.39542 12.0171 7.89059 12.1567 8.41782 12.1724C7.55499 11.6172 6.98782 10.6682 6.98782 9.59312C6.98782 9.02541 7.14697 8.49353 7.42297 8.03561C9.00763 9.91056 11.3759 11.1436 14.0466 11.2732C13.9915 11.0462 13.963 10.8097 13.963 10.5667C13.963 8.85608 15.4022 7.4683 17.1768 7.4683C18.1011 7.4683 18.936 7.84506 19.5224 8.44739C20.2545 8.30814 20.9419 8.05023 21.5629 7.6953C21.3226 8.41855 20.8133 9.02541 20.1498 9.40917C20.7998 9.33419 21.4193 9.16795 21.9951 8.92117C21.565 9.54266 21.0197 10.0885 20.3922 10.5259Z" fill="#FF7E00"/>
</svg>
