<svg width="27" height="27" viewBox="0 0 27 27" fill="none" xmlns="http://www.w3.org/2000/svg">
<circle cx="13.5" cy="13.5" r="13.5" fill="white"/>
<path d="M13.5 0C6.0453 0 0 6.0453 0 13.5C0 20.9547 6.0453 27 13.5 27C20.9547 27 27 20.9547 27 13.5C27 6.0453 20.9547 0 13.5 0ZM13.7861 21.3601C13.7859 21.3601 13.7863 21.3601 13.7861 21.3601H13.7828C12.4305 21.3595 11.1016 21.0204 9.92148 20.3769L5.63825 21.5002L6.78461 17.3144C6.07743 16.0895 5.70541 14.6999 5.70602 13.2763C5.70788 8.82271 9.33254 5.19949 13.7861 5.19949C15.9474 5.20031 17.9762 6.04159 19.5016 7.56821C21.0272 9.09503 21.8668 11.1245 21.866 13.2827C21.8642 17.7365 18.2391 21.3601 13.7861 21.3601Z" fill="#FF7E00"/>
<path d="M13.7888 6.56378C10.0844 6.56378 7.07178 9.5752 7.07013 13.2769C7.06972 14.5454 7.42485 15.7808 8.09701 16.8497L8.25665 17.1037L7.57811 19.5811L10.1199 18.9145L10.3652 19.06C11.3962 19.6718 12.5782 19.9954 13.7833 19.9958H13.7859C17.4874 19.9958 20.5001 16.9842 20.5017 13.2823C20.5024 11.4883 19.8045 9.80159 18.5366 8.53267C17.2687 7.26375 15.5824 6.5644 13.7888 6.56378ZM17.739 16.1633C17.5707 16.6346 16.7642 17.0649 16.3763 17.123C16.0284 17.1749 15.5884 17.1966 15.1047 17.0431C14.8114 16.95 14.4354 16.8258 13.9536 16.6179C11.9285 15.7437 10.6058 13.7052 10.5049 13.5704C10.4039 13.4357 9.68048 12.476 9.68048 11.4825C9.68048 10.4892 10.2021 10.0008 10.387 9.79891C10.5722 9.59683 10.791 9.54636 10.9255 9.54636C11.06 9.54636 11.1947 9.5476 11.3124 9.55337C11.4364 9.55955 11.6028 9.5062 11.7666 9.89985C11.9349 10.304 12.3386 11.2973 12.3891 11.3982C12.4396 11.4994 12.4731 11.6172 12.406 11.7519C12.3386 11.8867 12.1149 12.1773 11.9013 12.4422C11.8117 12.5533 11.6949 12.6521 11.8127 12.8542C11.9303 13.0561 12.3357 13.7171 12.9358 14.2523C13.707 14.9399 14.3576 15.1529 14.5594 15.254C14.7611 15.355 14.8789 15.3381 14.9968 15.2036C15.1144 15.0688 15.5015 14.6142 15.636 14.4121C15.7705 14.2101 15.9052 14.2438 16.0902 14.3112C16.2754 14.3784 17.2678 14.8668 17.4697 14.9677C17.6716 15.0688 17.8061 15.1193 17.8566 15.2036C17.9073 15.2878 17.9073 15.6918 17.739 16.1633Z" fill="#FF7E00"/>
</svg>
